<svg width="1200" height="630" viewBox="0 0 1200 630" fill="none" xmlns="http://www.w3.org/2000/svg">
  <rect width="1200" height="630" rx="40" fill="#F4F8F1"/>
  <rect x="40" y="40" width="1120" height="550" rx="34" fill="url(#paint0_linear_1_2)"/>
  <circle cx="1012" cy="144" r="162" fill="url(#paint1_radial_1_2)" fill-opacity="0.7"/>
  <circle cx="206" cy="92" r="136" fill="url(#paint2_radial_1_2)" fill-opacity="0.65"/>
  <rect x="96" y="96" width="474" height="438" rx="30" fill="white" fill-opacity="0.14"/>
  <text x="128" y="170" fill="white" font-family="Arial, sans-serif" font-size="26" font-weight="700" letter-spacing="2">MERCADO LOCAL EM ASTRO</text>
  <text x="128" y="248" fill="white" font-family="Arial, sans-serif" font-size="74" font-weight="800">Nome da sua</text>
  <text x="128" y="326" fill="white" font-family="Arial, sans-serif" font-size="74" font-weight="800">empresa com</text>
  <text x="128" y="404" fill="#FFF5A2" font-family="Arial, sans-serif" font-size="74" font-weight="800">busca, ofertas e WhatsApp</text>
  <text x="128" y="464" fill="white" fill-opacity="0.9" font-family="Arial, sans-serif" font-size="29" font-weight="500">Visual inspirado em supermercados reais, lista de compras e foco total em mobile.</text>
  <rect x="128" y="494" width="244" height="54" rx="27" fill="white"/>
  <text x="168" y="529" fill="#1F661C" font-family="Arial, sans-serif" font-size="24" font-weight="800">Ver ofertas</text>
  <rect x="696" y="118" width="382" height="388" rx="40" fill="white" fill-opacity="0.14"/>
  <rect x="740" y="180" width="130" height="252" rx="68" fill="#E25E49"/>
  <rect x="760" y="274" width="92" height="78" rx="24" fill="#FFF0E8"/>
  <rect x="878" y="150" width="118" height="284" rx="30" fill="#57B043"/>
  <rect x="896" y="244" width="82" height="68" rx="18" fill="#ECFFD9"/>
  <rect x="774" y="454" width="246" height="52" rx="26" fill="#163A23"/>
  <text x="812" y="488" fill="white" font-family="Arial, sans-serif" font-size="24" font-weight="800">BEMVINDO10</text>
  <defs>
    <linearGradient id="paint0_linear_1_2" x1="40" y1="40" x2="1160" y2="590" gradientUnits="userSpaceOnUse">
      <stop stop-color="#7D961D"/>
      <stop offset="0.55" stop-color="#407C1C"/>
      <stop offset="1" stop-color="#115C47"/>
    </linearGradient>
    <radialGradient id="paint1_radial_1_2" cx="0" cy="0" r="1" gradientUnits="userSpaceOnUse" gradientTransform="translate(1012 144) rotate(90) scale(162)">
      <stop stop-color="white"/>
      <stop offset="1" stop-color="white" stop-opacity="0"/>
    </radialGradient>
    <radialGradient id="paint2_radial_1_2" cx="0" cy="0" r="1" gradientUnits="userSpaceOnUse" gradientTransform="translate(206 92) rotate(90) scale(136)">
      <stop stop-color="#B2E15E"/>
      <stop offset="1" stop-color="#B2E15E" stop-opacity="0"/>
    </radialGradient>
  </defs>
</svg>
